<svg xmlns="http://www.w3.org/2000/svg" width="61" height="63" fill="#00954d" viewBox="0 0 61 63">
  <path d="M6.408 2.232a5.178 5.178 0 0 0-5.176 5.174v48.187a5.178 5.178 0 0 0 5.175 5.174h48.186a5.178 5.178 0 0 0 5.175-5.174V7.407a5.178 5.178 0 0 0-5.175-5.175Zm0 1.054h48.185a4.128 4.128 0 0 1 4.12 4.12v48.176a4.128 4.128 0 0 1-4.12 4.12H6.407a4.128 4.128 0 0 1-4.12-4.12V7.407a4.128 4.128 0 0 1 4.12-4.12Zm24.102 6.3a8.19 8.19 0 0 0-8.19 8.19c0 1.543.43 2.996 1.174 4.23h-.17a8.19 8.19 0 0 0 0 16.38 8.16 8.16 0 0 0 6.11-2.746v6.568a1.07 1.07 0 0 0 1.076 1.074 1.07 1.07 0 0 0 1.074-1.074v-6.57a8.124 8.124 0 0 0 6.11 2.748 8.19 8.19 0 0 0 0-16.38h-.17a8.132 8.132 0 0 0 1.176-4.23 8.191 8.191 0 0 0-8.19-8.19zm-.01 2.08a6.115 6.115 0 0 1 6.12 6.12 6.115 6.115 0 0 1-5.046 6.021v-6.23a1.07 1.07 0 0 0-1.074-1.074 1.07 1.07 0 0 0-1.074 1.075v6.23a6.123 6.123 0 0 1-5.045-6.021 6.122 6.122 0 0 1 6.12-6.12zm-7.186 12.41c1.971 0 3.722.935 4.848 2.378l-5.175 2.925c-.52.29-.697.947-.41 1.474.29.517.947.697 1.474.41l5.115-2.898c.17.53.26 1.084.27 1.661v.34c-.1 3.304-2.796 5.95-6.12 5.95a6.115 6.115 0 0 1-6.122-6.12 6.115 6.115 0 0 1 6.12-6.12zm14.382 0a6.115 6.115 0 0 1 6.12 6.12 6.115 6.115 0 0 1-6.12 6.12 6.11 6.11 0 0 1-6.11-5.94v-.36c.02-.557.11-1.094.258-1.611l5.045 2.855c.52.29 1.174.11 1.474-.408a1.088 1.088 0 0 0-.41-1.473l-5.124-2.895a6.113 6.113 0 0 1 4.866-2.408zM11.722 46.039c-1.783 0-3.205 1.314-3.205 3.801 0 2.378 1.304 3.682 3.205 3.682 1.66 0 2.736-1.074 2.975-2.616h-1.424c-.12.955-.716 1.312-1.551 1.312-1.304 0-1.783-1.064-1.783-2.378 0-2.01 1.066-2.487 1.783-2.487 1.184 0 1.422.836 1.551 1.303h1.424c-.12-1.064-.956-2.616-2.975-2.616zm4.159.37v6.885h5.354V52.11h-3.92v-1.902h3.442v-1.196h-3.444v-1.42h3.802v-1.184zm6.419 0v6.885h1.434v-4.985l2.845 4.985h1.423v-6.886h-1.304v4.746h-.12l-2.738-4.746zm7.016 0v6.896h1.541v-6.897Zm2.855 0v6.896h3.086c1.125.03 1.872-.27 2.229-.63.32-.317.618-.794.618-1.391.01-.717-.35-1.434-1.185-1.673.2-.16.837-.558.837-1.422-.01-.836-.36-1.781-2.141-1.781zm7.126 0v6.896h1.424v-2.738h1.541c1.076 0 1.196.36 1.196 1.304 0 .717 0 1.184.12 1.423h1.66v-.12c-.349-.109-.349-.349-.349-1.423 0-1.304-.357-1.541-.834-1.781.597-.24.944-.836.944-1.781 0-.479-.24-1.781-2.138-1.781zm9.036 0-2.497 6.896h1.541l.48-1.424h2.616l.479 1.424h1.54l-2.496-6.897Zm-14.737 1.063h1.78c.459 0 .906.23.956.718.05.586-.39.944-.956.944h-1.78zm7.135 0h1.9c.837 0 .955.598.955.955-.01.707-.368.946-1.074.946H40.73Zm8.439.36.825 2.855h-1.78zm-15.575 2.377h1.901c.477 0 1.064.298 1.114.834.07.728-.408 1.067-1.234 1.067h-1.78z"/>
</svg>
